<svg xmlns="http://www.w3.org/2000/svg" xmlns:xlink="http://www.w3.org/1999/xlink" width="500" zoomAndPan="magnify" viewBox="0 0 375 374.999991" height="500" preserveAspectRatio="xMidYMid meet" version="1.0"><defs><clipPath id="0d15ae690e"><path d="M 12.230469 83.289062 L 362.480469 83.289062 L 362.480469 291.789062 L 12.230469 291.789062 Z M 12.230469 83.289062 " clip-rule="nonzero"/></clipPath></defs><g clip-path="url(#0d15ae690e)"><path fill="#ffde59" d="M 67.734375 223.730469 L 74.1875 223.730469 C 76.953125 223.730469 79.164062 225.941406 79.164062 228.707031 C 79.164062 231.476562 76.953125 233.6875 74.1875 233.6875 L 67.734375 233.6875 C 64.96875 233.6875 62.753906 231.476562 62.753906 228.707031 C 62.753906 225.941406 64.96875 223.730469 67.734375 223.730469 Z M 59.433594 84.328125 L 97.972656 84.328125 C 100.003906 84.328125 101.847656 85.621094 102.398438 87.648438 L 139.648438 209.347656 C 140.199219 211.375 142.042969 212.667969 144.070312 212.667969 C 146.101562 212.667969 147.945312 211.375 148.496094 209.53125 L 188.878906 86.910156 C 189.433594 85.066406 191.277344 83.777344 193.304688 83.777344 L 225.203125 83.777344 C 227.234375 83.777344 229.078125 85.066406 229.628906 86.910156 L 270.011719 209.347656 C 270.75 211.375 272.410156 212.667969 274.4375 212.480469 C 276.464844 212.480469 278.308594 211.191406 278.863281 209.164062 L 316.109375 87.464844 C 316.664062 85.433594 318.507812 84.144531 320.535156 84.144531 L 357.785156 84.144531 C 359.257812 84.144531 360.734375 84.882812 361.65625 86.171875 C 362.578125 87.464844 362.761719 88.9375 362.207031 90.414062 L 295.273438 287.898438 C 294.535156 289.925781 292.878906 291.035156 290.847656 291.035156 L 258.210938 291.035156 C 256.183594 291.035156 254.523438 289.742188 253.785156 287.898438 L 213.035156 169.519531 C 212.296875 167.675781 210.636719 166.382812 208.609375 166.382812 C 206.582031 166.382812 204.921875 167.675781 204.183594 169.519531 L 163.433594 288.082031 C 162.695312 289.925781 161.035156 291.21875 159.007812 291.21875 L 116.597656 291.21875 C 116.042969 290.480469 115.859375 289.558594 115.859375 288.453125 C 115.859375 285.871094 117.886719 283.65625 120.46875 283.472656 L 131.535156 283.472656 C 134.300781 283.472656 136.511719 281.261719 136.511719 278.496094 C 136.511719 275.730469 134.300781 273.515625 131.535156 273.515625 L 89.675781 273.515625 C 86.910156 273.515625 84.699219 271.304688 84.699219 268.539062 C 84.699219 265.773438 86.910156 263.558594 89.675781 263.558594 L 117.703125 263.558594 C 120.46875 263.558594 122.683594 261.347656 122.683594 258.582031 C 122.683594 255.816406 120.46875 253.601562 117.703125 253.601562 L 101.660156 253.601562 C 98.894531 253.601562 96.683594 251.390625 96.683594 248.625 C 96.683594 245.855469 98.894531 243.644531 101.660156 243.644531 L 106.640625 243.644531 C 109.222656 243.644531 111.433594 241.433594 111.433594 238.667969 C 111.433594 235.898438 109.222656 233.6875 106.457031 233.6875 L 87.832031 233.6875 C 85.066406 233.6875 82.851562 231.476562 82.851562 228.707031 C 82.851562 225.941406 85.066406 223.730469 87.832031 223.730469 L 119.179688 223.730469 C 121.945312 223.730469 124.15625 221.515625 124.15625 218.75 C 124.15625 215.984375 121.945312 213.773438 119.179688 213.773438 L 84.699219 213.773438 C 81.929688 213.773438 79.71875 211.558594 79.71875 208.792969 C 79.71875 206.027344 81.929688 203.816406 84.699219 203.816406 L 102.582031 203.816406 C 105.347656 203.816406 107.5625 201.601562 107.5625 198.835938 C 107.5625 196.070312 105.347656 193.859375 102.582031 193.859375 L 84.511719 193.859375 C 81.746094 193.859375 79.535156 191.644531 79.535156 188.878906 C 79.535156 186.113281 81.746094 183.902344 84.511719 183.902344 L 88.386719 183.902344 C 91.152344 183.902344 93.363281 181.6875 93.363281 178.921875 C 93.363281 176.15625 91.152344 173.945312 88.386719 173.945312 L 73.632812 173.945312 C 70.867188 173.945312 68.65625 171.730469 68.65625 168.964844 C 68.65625 166.199219 70.867188 163.988281 73.632812 163.988281 L 96.3125 163.988281 C 99.078125 163.988281 101.292969 161.773438 101.292969 159.007812 C 101.292969 156.242188 99.078125 154.03125 96.3125 154.03125 L 56.484375 154.03125 C 53.71875 154.03125 51.507812 151.816406 51.507812 149.050781 C 51.507812 146.285156 53.71875 144.074219 56.484375 144.074219 L 76.953125 144.074219 C 79.71875 144.074219 81.929688 141.859375 81.929688 139.09375 C 81.929688 136.695312 80.085938 134.667969 77.875 134.113281 L 66.441406 134.113281 C 63.675781 134.113281 61.464844 131.902344 61.464844 129.136719 C 61.464844 126.371094 63.675781 124.15625 66.441406 124.15625 L 74.738281 124.15625 C 76.953125 123.605469 78.613281 121.578125 78.613281 119.363281 C 78.613281 116.597656 76.398438 114.386719 73.632812 114.386719 L 68.839844 114.386719 C 68.65625 114.386719 68.285156 114.386719 67.917969 114.386719 L 50.398438 114.386719 C 47.632812 114.386719 45.421875 112.171875 45.421875 109.40625 C 45.421875 106.640625 47.632812 104.429688 50.398438 104.429688 L 60.726562 104.429688 C 63.492188 104.429688 65.703125 102.214844 65.703125 99.449219 C 65.703125 97.050781 63.859375 95.023438 61.648438 94.46875 L 41.917969 94.46875 C 39.152344 94.46875 36.941406 92.257812 36.941406 89.492188 C 36.941406 86.726562 39.152344 84.511719 41.917969 84.511719 L 59.433594 84.511719 Z M 28.273438 143.886719 L 41.179688 143.886719 C 43.945312 143.886719 46.160156 146.101562 46.160156 148.867188 C 46.160156 151.632812 43.945312 153.84375 41.179688 153.84375 L 28.273438 153.84375 C 25.507812 153.84375 23.292969 151.632812 23.292969 148.867188 C 23.292969 146.101562 25.507812 143.886719 28.273438 143.886719 Z M 17.210938 203.632812 L 65.703125 203.632812 C 68.472656 203.632812 70.683594 205.84375 70.683594 208.609375 C 70.683594 211.375 68.472656 213.589844 65.703125 213.589844 L 17.210938 213.589844 C 14.445312 213.589844 12.230469 211.375 12.230469 208.609375 C 12.230469 206.027344 14.445312 203.632812 17.210938 203.632812 Z M 79.351562 243.644531 L 84.144531 243.644531 C 86.910156 243.644531 89.121094 245.855469 89.121094 248.625 C 89.121094 251.390625 86.910156 253.601562 84.144531 253.601562 L 79.351562 253.601562 C 76.585938 253.601562 74.371094 251.390625 74.371094 248.625 C 74.371094 245.855469 76.769531 243.644531 79.351562 243.644531 Z M 47.449219 183.71875 L 70.683594 183.71875 C 73.449219 183.71875 75.664062 185.929688 75.664062 188.695312 C 75.664062 191.460938 73.449219 193.675781 70.683594 193.675781 L 47.449219 193.675781 C 44.683594 193.675781 42.472656 191.460938 42.472656 188.695312 C 42.472656 185.929688 44.683594 183.71875 47.449219 183.71875 Z M 33.988281 104.242188 L 38.414062 104.242188 C 41.179688 104.242188 43.394531 106.457031 43.394531 109.222656 C 43.394531 111.988281 41.179688 114.199219 38.414062 114.199219 L 33.988281 114.199219 C 31.222656 114.199219 29.011719 111.988281 29.011719 109.222656 C 29.011719 106.457031 31.222656 104.242188 33.988281 104.242188 Z M 33.988281 104.242188 " fill-opacity="1" fill-rule="evenodd"/></g></svg>